<?xml version="1.0" encoding="utf-8"?>
<!-- Generator: Adobe Illustrator 16.0.0, SVG Export Plug-In . SVG Version: 6.00 Build 0)  -->
<!DOCTYPE svg PUBLIC "-//W3C//DTD SVG 1.1//EN" "http://www.w3.org/Graphics/SVG/1.1/DTD/svg11.dtd">
<svg version="1.1" id="Layer_1" xmlns="http://www.w3.org/2000/svg" xmlns:xlink="http://www.w3.org/1999/xlink" x="0px" y="0px"
	 width="100px" height="100px" viewBox="0 0 100 100" enable-background="new 0 0 100 100" xml:space="preserve">
<g>
	<path d="M66.361,17.161c-13.84-13.842-36.36-13.842-50.202,0c-13.842,13.839-13.842,36.36,0,50.2
		c13.366,13.367,34.825,13.822,48.748,1.373l2.813,2.813c-0.701,1.797-0.334,3.908,1.113,5.355l14.852,14.852
		c1.953,1.953,5.119,1.953,7.069,0c1.953-1.949,1.953-5.115,0-7.068l-14.851-14.85c-1.448-1.447-3.563-1.814-5.356-1.113
		l-2.813-2.816C80.188,51.984,79.729,30.525,66.361,17.161z M20.401,63.121c-11.502-11.502-11.502-30.217,0-41.719
		c11.502-11.503,30.218-11.502,41.72,0s11.502,30.217,0,41.719S31.903,74.623,20.401,63.121z"/>
	<path d="M38.619,49.737l-3.077-3.077l8.499-8.5c4.005,2.357,9.248,1.831,12.684-1.602c4.069-4.07,4.069-10.699,0-14.77
		c-4.072-4.071-10.7-4.071-14.771,0c-3.433,3.434-3.958,8.677-1.603,12.681L25.286,49.531c-0.68,0.68-0.68,1.782,0,2.461
		l1.231,1.229c0.68,0.682,1.78,0.682,2.46,0l2.872-2.87l3.078,3.077c0.68,0.682,1.782,0.68,2.461,0l1.231-1.23
		C39.299,51.518,39.299,50.417,38.619,49.737z M44.415,24.249c2.715-2.714,7.132-2.714,9.845,0c2.715,2.716,2.715,7.131,0,9.846
		c-2.714,2.714-7.13,2.716-9.845,0C41.699,31.381,41.699,26.965,44.415,24.249z"/>
	<g>
		<path d="M29.099,58.639l1.043,3.574l0.949-3.322c0.102-0.348,0.177-0.584,0.226-0.711c0.049-0.127,0.141-0.248,0.275-0.363
			c0.134-0.114,0.319-0.174,0.554-0.174c0.238,0,0.425,0.06,0.56,0.174c0.135,0.115,0.229,0.24,0.284,0.375
			c0.055,0.136,0.131,0.367,0.229,0.699l0.949,3.322l1.055-3.574c0.07-0.258,0.127-0.443,0.17-0.56
			c0.043-0.117,0.115-0.218,0.217-0.306s0.248-0.131,0.439-0.131c0.191,0,0.357,0.064,0.498,0.197
			c0.141,0.135,0.211,0.289,0.211,0.471c0,0.164-0.061,0.412-0.182,0.744l-1.307,3.832c-0.113,0.322-0.201,0.559-0.264,0.701
			s-0.161,0.271-0.296,0.389c-0.135,0.112-0.319,0.17-0.554,0.17c-0.242,0-0.433-0.063-0.571-0.184
			c-0.138-0.119-0.241-0.271-0.308-0.443c-0.067-0.176-0.139-0.404-0.217-0.688l-0.914-3.117l-0.885,3.117
			c-0.117,0.436-0.244,0.762-0.381,0.98c-0.137,0.221-0.377,0.33-0.721,0.33c-0.176,0-0.325-0.033-0.448-0.103
			s-0.226-0.166-0.308-0.293s-0.154-0.276-0.217-0.451c-0.063-0.174-0.111-0.312-0.146-0.413l-1.295-3.832
			c-0.129-0.359-0.193-0.607-0.193-0.744c0-0.172,0.068-0.326,0.205-0.463c0.137-0.137,0.305-0.205,0.504-0.205
			c0.266,0,0.445,0.075,0.539,0.227C28.893,58.018,28.993,58.275,29.099,58.639z"/>
		<path d="M38.854,58.639l1.043,3.574l0.949-3.322c0.102-0.348,0.177-0.584,0.226-0.711c0.049-0.127,0.141-0.248,0.275-0.363
			c0.134-0.114,0.319-0.174,0.554-0.174c0.238,0,0.425,0.06,0.56,0.174c0.135,0.115,0.229,0.24,0.284,0.375
			c0.055,0.136,0.131,0.367,0.229,0.699l0.949,3.322l1.055-3.574c0.07-0.258,0.127-0.443,0.17-0.56
			c0.043-0.117,0.115-0.218,0.217-0.306c0.102-0.088,0.248-0.131,0.439-0.131c0.191,0,0.357,0.064,0.498,0.197
			c0.141,0.135,0.211,0.289,0.211,0.471c0,0.164-0.061,0.412-0.182,0.744l-1.307,3.832c-0.113,0.322-0.201,0.559-0.264,0.701
			c-0.063,0.145-0.161,0.271-0.296,0.389c-0.135,0.112-0.319,0.17-0.554,0.17c-0.242,0-0.433-0.063-0.571-0.184
			c-0.138-0.119-0.241-0.271-0.308-0.443c-0.067-0.176-0.139-0.404-0.217-0.688L41.9,59.716l-0.885,3.117
			c-0.117,0.435-0.244,0.761-0.381,0.981c-0.137,0.219-0.377,0.33-0.721,0.33c-0.176,0-0.325-0.033-0.448-0.104
			s-0.226-0.166-0.308-0.293c-0.082-0.127-0.154-0.275-0.217-0.451c-0.063-0.174-0.111-0.313-0.146-0.412l-1.295-3.832
			c-0.129-0.359-0.193-0.607-0.193-0.744c0-0.172,0.068-0.326,0.205-0.463c0.137-0.138,0.305-0.205,0.504-0.205
			c0.266,0,0.445,0.074,0.539,0.227C38.648,58.018,38.749,58.275,38.854,58.639z"/>
		<path d="M48.61,58.639l1.043,3.574l0.949-3.322c0.104-0.348,0.178-0.584,0.228-0.711c0.049-0.127,0.142-0.248,0.274-0.363
			c0.133-0.114,0.318-0.174,0.555-0.174s0.425,0.06,0.56,0.174c0.136,0.115,0.229,0.24,0.284,0.375
			c0.055,0.136,0.131,0.367,0.229,0.699l0.949,3.322l1.055-3.574c0.07-0.258,0.127-0.443,0.17-0.56
			c0.043-0.117,0.115-0.218,0.218-0.306s0.248-0.131,0.438-0.131s0.356,0.064,0.498,0.197c0.142,0.135,0.211,0.289,0.211,0.471
			c0,0.164-0.062,0.412-0.183,0.744l-1.308,3.832c-0.112,0.322-0.2,0.559-0.264,0.701c-0.063,0.145-0.16,0.271-0.295,0.389
			c-0.137,0.112-0.32,0.17-0.556,0.17c-0.242,0-0.435-0.063-0.569-0.184c-0.14-0.119-0.242-0.271-0.31-0.443
			c-0.065-0.176-0.14-0.404-0.218-0.688l-0.914-3.117l-0.885,3.117c-0.117,0.436-0.244,0.762-0.38,0.98
			c-0.137,0.221-0.377,0.33-0.721,0.33c-0.176,0-0.325-0.033-0.448-0.103s-0.226-0.166-0.308-0.293s-0.154-0.276-0.217-0.451
			c-0.063-0.174-0.111-0.312-0.146-0.413l-1.295-3.832c-0.129-0.359-0.193-0.607-0.193-0.744c0-0.172,0.068-0.326,0.205-0.463
			c0.137-0.137,0.305-0.205,0.504-0.205c0.266,0,0.445,0.075,0.539,0.227C48.404,58.018,48.505,58.275,48.61,58.639z"/>
	</g>
</g>
</svg>
