<svg xmlns="http://www.w3.org/2000/svg" xmlns:xlink="http://www.w3.org/1999/xlink" version="1.1" id="Layer_1" x="0px" y="0px" viewBox="0 0 45 45" enable-background="new 0 0 45 45" xml:space="preserve">
<style>
	.style0{
		fill:	#EF3F2F;
	}
</style><path d="M44 24.4L24.5 43.7c-1.1 1.1-2.9 1.1-4.1 0l-4.1-4l5.1-5.1c1.2 0.4 2.6 0.1 3.5-0.8c1-0.9 1.2-2.3 0.8-3.5 l5-4.9c1.2 0.4 2.6 0.1 3.5-0.8c1.3-1.3 1.3-3.5 0-4.8c-1.3-1.3-3.5-1.3-4.8 0c-1 1-1.3 2.5-0.7 3.7l-4.6 4.6v-12 c0.3-0.2 0.6-0.4 0.9-0.6c1.3-1.3 1.3-3.5 0-4.8c-1.3-1.3-3.5-1.3-4.8 0c-1.3 1.3-1.3 3.5 0 4.8c0.3 0.3 0.7 0.6 1.1 0.7v12.1 c-0.4 0.2-0.8 0.4-1.1 0.7c-1 1-1.3 2.5-0.7 3.7l-5.1 5L1 24.5c-1.1-1.1-1.1-2.9 0-4L20.5 1.2c1.1-1.1 2.9-1.1 4.1 0L44 20.4 C45.1 21.5 45.1 23.3 44 24.4" class="style0"/>
</svg>
